<?xml version="1.0" encoding="UTF-8"?>
<svg xmlns="http://www.w3.org/2000/svg" viewBox="0 0 10063.96 1762.56" fill="#ffffff">
  <path d="M96.00146484375 0V1490H1082.397705078125V1230.404052734375H410.39599609375V820.799560546875H1016.797607421875V566.00341796875H410.39599609375V0Z" transform="translate(-96.00146484375,-1510.0)"/>
  <path d="M767.1986083984375 -20Q569.39892578125 -20 411.09930419921875 70.0001220703125Q252.7996826171875 160.000244140625 160.99993896484375 330.9002685546875Q69.2001953125 501.80029296875 69.2001953125 744Q69.2001953125 987.7996826171875 160.99993896484375 1159.19970703125Q252.7996826171875 1330.5997314453125 411.09930419921875 1420.2998657226562Q569.39892578125 1510 767.1986083984375 1510Q965.3983154296875 1510 1122.9979248046875 1420.2998657226562Q1280.5975341796875 1330.5997314453125 1372.4972534179688 1159.19970703125Q1464.39697265625 987.7996826171875 1464.39697265625 744Q1464.39697265625 501.2003173828125 1372.4972534179688 330.30029296875Q1280.5975341796875 159.4002685546875 1122.9979248046875 69.70013427734375Q965.3983154296875 -20 767.1986083984375 -20ZM767.1986083984375 258.3955078125Q881.7994384765625 258.3955078125 966.700439453125 314.2960205078125Q1051.6014404296875 370.196533203125 1098.4021606445312 478.5975341796875Q1145.202880859375 586.99853515625 1145.202880859375 744Q1145.202880859375 902.00146484375 1098.4021606445312 1010.9024658203125Q1051.6014404296875 1119.803466796875 966.700439453125 1175.7039794921875Q881.7994384765625 1231.6044921875 767.1986083984375 1231.6044921875Q653.19775390625 1231.6044921875 568.0967407226562 1175.7039794921875Q482.9957275390625 1119.803466796875 435.69500732421875 1010.9024658203125Q388.394287109375 902.00146484375 388.394287109375 744Q388.394287109375 586.99853515625 435.69500732421875 478.5975341796875Q482.9957275390625 370.196533203125 568.0967407226562 314.2960205078125Q653.19775390625 258.3955078125 767.1986083984375 258.3955078125Z" transform="translate(1034.99853515625,-1510.0)"/>
  <path d="M96.00146484375 0V1490H682.798095703125Q852.3983154296875 1490 971.697998046875 1429.9000244140625Q1090.9976806640625 1369.800048828125 1154.2973022460938 1260.30029296875Q1217.596923828125 1150.800537109375 1217.596923828125 1003.201171875Q1217.596923828125 854.8018798828125 1153.5973510742188 748.0020751953125Q1089.5977783203125 641.2022705078125 968.1981811523438 584.6022338867188Q846.798583984375 528.002197265625 675.198486328125 528.002197265625H282.39794921875V781.198486328125H623.600341796875Q714.801513671875 781.198486328125 774.60205078125 805.9989013671875Q834.402587890625 830.79931640625 863.802734375 879.9999389648438Q893.202880859375 929.2005615234375 893.202880859375 1003.201171875Q893.202880859375 1077.601806640625 863.6027221679688 1128.4024658203125Q834.0025634765625 1179.203125 774.2020263671875 1205.403564453125Q714.4014892578125 1231.60400390625 622.80029296875 1231.60400390625H410.39599609375V0ZM922.802734375 0 560.40283203125 678.399658203125H899.997314453125L1270.797119140625 0Z" transform="translate(2568.99853515625,-1510.0)"/>
  <path d="M772.798583984375 -20Q563.3990478515625 -20 404.8994140625 72.70001220703125Q246.3997802734375 165.4000244140625 157.79998779296875 336.60003662109375Q69.2001953125 507.800048828125 69.2001953125 742.800048828125Q69.2001953125 984.7998046875 161.6998291015625 1156.4998168945312Q254.199462890625 1328.1998291015625 411.9990234375 1419.0999145507812Q569.798583984375 1510 766.79833984375 1510Q893.197998046875 1510 1002.0977172851562 1473.5000610351562Q1110.9974365234375 1437.0001220703125 1195.7972412109375 1369.6002197265625Q1280.5970458984375 1302.2003173828125 1334.0970458984375 1210.5004272460938Q1387.5970458984375 1118.800537109375 1403.197265625 1008.400634765625H1084.002685546875Q1069.0023193359375 1060.801513671875 1041.3018798828125 1102.2022094726562Q1013.6014404296875 1143.6029052734375 973.7008666992188 1172.50341796875Q933.80029296875 1201.4039306640625 883.2996215820312 1216.5042114257812Q832.7989501953125 1231.6044921875 771.59814453125 1231.6044921875Q658.1973876953125 1231.6044921875 571.5964965820312 1175.10400390625Q484.99560546875 1118.603515625 436.6949462890625 1010.0025024414062Q388.394287109375 901.4014892578125 388.394287109375 746.39990234375Q388.394287109375 590.598388671875 435.9949951171875 481.597412109375Q483.595703125 372.596435546875 570.2966918945312 315.4959716796875Q656.9976806640625 258.3955078125 775.198486328125 258.3955078125Q881.599365234375 258.3955078125 957.3002319335938 296.59619140625Q1033.0010986328125 334.796875 1073.3016967773438 404.6981201171875Q1113.602294921875 474.599365234375 1113.602294921875 569.60107421875L1178.001953125 560.0009765625H794.79931640625V796.7978515625H1417.9970703125V609.198974609375Q1417.9970703125 413.199462890625 1335.197265625 272.2996826171875Q1252.3974609375 131.39990234375 1106.497802734375 55.699951171875Q960.59814453125 -20 772.798583984375 -20Z" transform="translate(3846.99853515625,-1510.0)"/>
  <path d="M96.00146484375 0V1490H1100.397216796875V1230.404052734375H410.39599609375V879.998046875H1047.597412109375V625.201904296875H410.39599609375V259.595947265625H1101.99755859375V0Z" transform="translate(5337.99853515625,-1510.0)"/>
  <path d="M1342.39892578125 1490V0H1069.602783203125L422.796142578125 937.20947265625H410.39599609375V0H96.00146484375V1490H371.997314453125L1015.204345703125 553.1904296875H1028.00439453125V1490Z" transform="translate(6524.99853515625,-1510.0)"/>
  <path d="M410.39599609375 1490V0H96.00146484375V1490Z" transform="translate(7962.99853515625,-1510.0)"/>
  <path d="M658.400634765625 517.597900390625H925.997802734375L1060.799072265625 345.196044921875L1192.79541015625 191.199951171875L1441.995361328125 -122.000732421875H1147.999267578125L976.399658203125 88.799560546875L888.801513671875 214.396728515625ZM767.1986083984375 -20Q569.39892578125 -20 411.09930419921875 70.0001220703125Q252.7996826171875 160.000244140625 160.99993896484375 330.9002685546875Q69.2001953125 501.80029296875 69.2001953125 744Q69.2001953125 987.7996826171875 160.99993896484375 1159.19970703125Q252.7996826171875 1330.5997314453125 411.09930419921875 1420.2998657226562Q569.39892578125 1510 767.1986083984375 1510Q965.3983154296875 1510 1122.9979248046875 1420.2998657226562Q1280.5975341796875 1330.5997314453125 1372.4972534179688 1159.19970703125Q1464.39697265625 987.7996826171875 1464.39697265625 744Q1464.39697265625 501.2003173828125 1372.4972534179688 330.30029296875Q1280.5975341796875 159.4002685546875 1122.9979248046875 69.70013427734375Q965.3983154296875 -20 767.1986083984375 -20ZM767.1986083984375 258.3955078125Q881.7994384765625 258.3955078125 966.700439453125 314.2960205078125Q1051.6014404296875 370.196533203125 1098.4021606445312 478.5975341796875Q1145.202880859375 586.99853515625 1145.202880859375 744Q1145.202880859375 902.00146484375 1098.4021606445312 1010.9024658203125Q1051.6014404296875 1119.803466796875 966.700439453125 1175.7039794921875Q881.7994384765625 1231.6044921875 767.1986083984375 1231.6044921875Q653.19775390625 1231.6044921875 568.0967407226562 1175.7039794921875Q482.9957275390625 1119.803466796875 435.69500732421875 1010.9024658203125Q388.394287109375 902.00146484375 388.394287109375 744Q388.394287109375 586.99853515625 435.69500732421875 478.5975341796875Q482.9957275390625 370.196533203125 568.0967407226562 314.2960205078125Q653.19775390625 258.3955078125 767.1986083984375 258.3955078125Z" transform="translate(8468.99853515625,-1510.0)"/>
</svg>