<?xml version="1.0" encoding="UTF-8"?>
<svg xmlns="http://www.w3.org/2000/svg" viewBox="0 0 10363.60 1749.60" fill="#ffffff">
  <path d="M72.0 1984V494H1120.0V820H476.0V1156H1056.0V1474H476.0V1984Z" transform="translate(-7.2000,-409.2000)"/>
  <path d="M1938.0 2004Q1735.0 2004 1570.5 1916.0Q1406.0 1828 1310.0 1657.5Q1214.0 1487 1214.0 1240Q1214.0 991 1310.0 820.0Q1406.0 649 1570.5 561.5Q1735.0 474 1938.0 474Q2141.0 474 2305.0 561.5Q2469.0 649 2565.5 820.0Q2662.0 991 2662.0 1240Q2662.0 1488 2565.5 1658.5Q2469.0 1829 2305.0 1916.5Q2141.0 2004 1938.0 2004ZM1938.0 1652Q2039.0 1652 2107.5 1604.5Q2176.0 1557 2211.0 1465.0Q2246.0 1373 2246.0 1240Q2246.0 1106 2211.0 1013.5Q2176.0 921 2107.5 873.5Q2039.0 826 1938.0 826Q1838.0 826 1769.5 873.5Q1701.0 921 1665.5 1013.5Q1630.0 1106 1630.0 1240Q1630.0 1373 1665.5 1465.0Q1701.0 1557 1769.5 1604.5Q1838.0 1652 1938.0 1652Z" transform="translate(-7.2000,-409.2000)"/>
  <path d="M2800.0 1984V494H3442.0Q3608.0 494 3732.5 554.5Q3857.0 615 3926.5 728.5Q3996.0 842 3996.0 1000Q3996.0 1160 3925.0 1270.0Q3854.0 1380 3726.0 1436.0Q3598.0 1492 3428.0 1492H3044.0V1178H3346.0Q3418.0 1178 3469.0 1160.0Q3520.0 1142 3547.0 1103.0Q3574.0 1064 3574.0 1000Q3574.0 936 3547.0 896.0Q3520.0 856 3469.0 837.0Q3418.0 818 3346.0 818H3204.0V1984ZM3606.0 1984 3242.0 1300H3672.0L4046.0 1984Z" transform="translate(-7.2000,-409.2000)"/>
  <path d="M4844.0 2004Q4627.0 2004 4462.5 1911.5Q4298.0 1819 4206.0 1648.0Q4114.0 1477 4114.0 1242Q4114.0 996 4212.5 824.5Q4311.0 653 4476.0 563.5Q4641.0 474 4842.0 474Q4974.0 474 5087.5 511.5Q5201.0 549 5289.0 618.0Q5377.0 687 5430.5 780.5Q5484.0 874 5496.0 986H5088.0Q5079.0 948 5058.5 918.0Q5038.0 888 5007.5 867.5Q4977.0 847 4937.5 836.5Q4898.0 826 4850.0 826Q4749.0 826 4677.0 874.5Q4605.0 923 4567.5 1015.0Q4530.0 1107 4530.0 1236Q4530.0 1367 4566.0 1460.0Q4602.0 1553 4672.5 1602.5Q4743.0 1652 4848.0 1652Q4940.0 1652 5001.5 1625.0Q5063.0 1598 5093.5 1548.5Q5124.0 1499 5124.0 1432L5194.0 1440H4854.0V1152H5514.0V1358Q5514.0 1562 5428.0 1706.5Q5342.0 1851 5190.5 1927.5Q5039.0 2004 4844.0 2004Z" transform="translate(-7.2000,-409.2000)"/>
  <path d="M5654.0 1984V494H6728.0V820H6058.0V1072H6672.0V1390H6058.0V1658H6724.0V1984Z" transform="translate(-7.2000,-409.2000)"/>
  <path d="M8168.0 494V1984H7832.0L7294.0 1202H7284.0V1984H6880.0V494H7224.0L7752.0 1274H7764.0V494Z" transform="translate(-7.2000,-409.2000)"/>
  <path d="M8716.0 494V1984H8312.0V494Z" transform="translate(-7.2000,-409.2000)"/>
  <path d="M9436.0 1432H9750.0L9864.0 1574L10056.0 1792L10306.0 2094H9948.0L9770.0 1888L9652.0 1716ZM9578.0 2004Q9375.0 2004 9210.5 1916.0Q9046.0 1828 8950.0 1657.5Q8854.0 1487 8854.0 1240Q8854.0 991 8950.0 820.0Q9046.0 649 9210.5 561.5Q9375.0 474 9578.0 474Q9781.0 474 9945.0 561.5Q10109.0 649 10205.5 820.0Q10302.0 991 10302.0 1240Q10302.0 1488 10205.5 1658.5Q10109.0 1829 9945.0 1916.5Q9781.0 2004 9578.0 2004ZM9578.0 1652Q9679.0 1652 9747.5 1604.5Q9816.0 1557 9851.0 1465.0Q9886.0 1373 9886.0 1240Q9886.0 1106 9851.0 1013.5Q9816.0 921 9747.5 873.5Q9679.0 826 9578.0 826Q9478.0 826 9409.5 873.5Q9341.0 921 9305.5 1013.5Q9270.0 1106 9270.0 1240Q9270.0 1373 9305.5 1465.0Q9341.0 1557 9409.5 1604.5Q9478.0 1652 9578.0 1652Z" transform="translate(-7.2000,-409.2000)"/>
</svg>